<?xml version="1.0" encoding="UTF-8" standalone="no"?>
<!-- Created with Inkscape (http://www.inkscape.org/) -->

<svg
   xmlns:dc="http://purl.org/dc/elements/1.1/"
   xmlns:cc="http://creativecommons.org/ns#"
   xmlns:rdf="http://www.w3.org/1999/02/22-rdf-syntax-ns#"
   xmlns:svg="http://www.w3.org/2000/svg"
   xmlns="http://www.w3.org/2000/svg"
   xmlns:sodipodi="http://sodipodi.sourceforge.net/DTD/sodipodi-0.dtd"
   xmlns:inkscape="http://www.inkscape.org/namespaces/inkscape"
   id="svg3833"
   height="24"
   width="24"
   version="1.1"
   inkscape:version="0.91 r13725"
   sodipodi:docname="dropboxstatus-busy (copy).svg">
  <defs
     id="defs8" />
  <sodipodi:namedview
     pagecolor="#ffffff"
     bordercolor="#666666"
     borderopacity="1"
     objecttolerance="10"
     gridtolerance="10"
     guidetolerance="10"
     inkscape:pageopacity="0"
     inkscape:pageshadow="2"
     inkscape:window-width="1920"
     inkscape:window-height="1056"
     id="namedview6"
     showgrid="false"
     inkscape:zoom="39.333333"
     inkscape:cx="6.7039731"
     inkscape:cy="12.510162"
     inkscape:window-x="0"
     inkscape:window-y="24"
     inkscape:window-maximized="1"
     inkscape:current-layer="svg3833" />
  <metadata
     id="metadata13">
    <rdf:RDF>
      <cc:Work
         rdf:about="">
        <dc:format>image/svg+xml</dc:format>
        <dc:type
           rdf:resource="http://purl.org/dc/dcmitype/StillImage" />
        <dc:title />
      </cc:Work>
    </rdf:RDF>
  </metadata>
  <path
     sodipodi:nodetypes="ccccccccccccsccscccccscccccccccsccc"
     inkscape:connector-curvature="0"
     id="path3887-7"
     d="m 0.8940681,14.161022 11.1864369,7.779661 11.211864,-7.601695 c -11.18644,-8.8559378 0,0 -11.18644,-8.8559378 z m 7.1864409,-4.2203447 1.999996,0 1,0 0,1.0000057 0,2 -1,0 0,-1.3125 c -0.556696,0.435 -0.999996,1.142 -0.999996,2.312 0,3 2.999996,3 2.999996,3 l 0,1 c 0,0 -3.999996,0 -3.999996,-4 0,-1.4826 0.55829,-2.4128 1.25,-3 l -1.25,0 0,-1.0000057 z m 3.999996,0 c 0,0 4,0 4,4.0000057 0,1.4826 -0.55829,2.4128 -1.25,3 l 1.25,0 0,1 -2,0 -1,0 0,-1 0,-2 1,0 0,1.3125 c 0.557,-0.435 1,-1.142 1,-2.312 0,-3 -3,-3 -3,-3 l 0,-1.0000057 z"
     style="color:#000000;fill:#000000;fill-opacity:0.29803923" />
  <path
     sodipodi:nodetypes="ccccccccccccsccscccccscccccccccsccc"
     inkscape:connector-curvature="0"
     id="path3887"
     d="M 0.8135594,13.190678 12,20.970339 23.211864,13.368644 c -11.18644,-8.8559322 0,0 -11.18644,-8.8559322 z m 7.1864407,-4.2203391 1.9999999,0 1,0 0,1 0,2.0000001 -1,0 0,-1.3125 c -0.5566999,0.435 -0.9999999,1.142 -0.9999999,2.312 0,3 2.9999999,3 2.9999999,3 l 0,1 c 0,0 -3.9999999,0 -3.9999999,-4 0,-1.4826 0.55829,-2.4128 1.25,-3.0000001 l -1.25,0 0,-1 z m 3.9999999,0 c 0,0 4,0 4,4.0000001 0,1.4826 -0.55829,2.4128 -1.25,3 l 1.25,0 0,1 -2,0 -1,0 0,-1 0,-2 1,0 0,1.3125 c 0.557,-0.435 1,-1.142 1,-2.312 0,-3.0000001 -3,-3.0000001 -3,-3.0000001 l 0,-1 z"
     style="color:#000000;fill:#dfdbd2" />
</svg>
