<?xml version="1.0" encoding="UTF-8" standalone="no"?>
<!-- Created with Inkscape (http://www.inkscape.org/) -->

<svg
   xmlns:dc="http://purl.org/dc/elements/1.1/"
   xmlns:cc="http://creativecommons.org/ns#"
   xmlns:rdf="http://www.w3.org/1999/02/22-rdf-syntax-ns#"
   xmlns:svg="http://www.w3.org/2000/svg"
   xmlns="http://www.w3.org/2000/svg"
   xmlns:sodipodi="http://sodipodi.sourceforge.net/DTD/sodipodi-0.dtd"
   xmlns:inkscape="http://www.inkscape.org/namespaces/inkscape"
   id="svg3833"
   height="24"
   width="24"
   version="1.1"
   inkscape:version="0.91 r13725"
   sodipodi:docname="backup-busy (copy).svg">
  <defs
     id="defs8" />
  <sodipodi:namedview
     pagecolor="#ffffff"
     bordercolor="#666666"
     borderopacity="1"
     objecttolerance="10"
     gridtolerance="10"
     guidetolerance="10"
     inkscape:pageopacity="0"
     inkscape:pageshadow="2"
     inkscape:window-width="1920"
     inkscape:window-height="1056"
     id="namedview6"
     showgrid="false"
     inkscape:zoom="39.333333"
     inkscape:cx="5.9921087"
     inkscape:cy="10.094908"
     inkscape:window-x="0"
     inkscape:window-y="24"
     inkscape:window-maximized="1"
     inkscape:current-layer="svg3833" />
  <metadata
     id="metadata13">
    <rdf:RDF>
      <cc:Work
         rdf:about="">
        <dc:format>image/svg+xml</dc:format>
        <dc:type
           rdf:resource="http://purl.org/dc/dcmitype/StillImage" />
        <dc:title />
      </cc:Work>
    </rdf:RDF>
  </metadata>
  <path
     id="path2835-3"
     d="M 0.86440714,14.254237 12.076271,21.957627 23.38983,14.381356 c -11.338983,-8.9322036 0,0 -11.338983,-8.9322036 -11.18643986,8.8050846 0,0 -11.18643986,8.8050846 z M 12.076271,9.9576272 c 1.4826,0 2.4128,0.5582898 3,1.2499998 l 0,-1.2499998 1,0 0,1.9999998 0,1 -1,0 -2,0 0,-1 1.3125,0 c -0.435,-0.557 -1.142,-1 -2.312,-1 -2.9999995,0 -2.9999995,3 -2.9999995,3 l -1,0 c 0,0 0,-3.9999998 3.9999995,-3.9999998 z m 3,3.9999998 1,0 c 0,0 0,4 -4,4 -1.482599,0 -2.4127995,-0.55829 -2.9999995,-1.25 l 0,1.25 -1,0 0,-2 0,-1 1,0 1.9999995,0 0,1 -1.3124995,0 c 0.4353505,0.55672 1.1424995,1 2.3124995,1 3,0 3,-3 3,-3 z"
     style="color:#000000;fill:#000000;fill-opacity:0.29803922"
     inkscape:connector-curvature="0"
     sodipodi:nodetypes="cccccccccccccccsccccccscccccccccsc" />
  <path
     id="path2835"
     d="M 0.78813559,13.29661 12,21 23.313559,13.423729 11.974576,4.4915254 Z"
     style="color:#000000;fill:#dfdbd2"
     inkscape:connector-curvature="0"
     sodipodi:nodetypes="ccccc" />
</svg>
